<mxfile host="app.diagrams.net" modified="2022-01-31T11:50:09.289Z" agent="5.0 (Windows NT 10.0; Win64; x64) AppleWebKit/537.36 (KHTML, like Gecko) Chrome/97.0.4692.99 Safari/537.36" etag="L-bA92scp1LQ8nyrrH5E" version="16.5.2" type="github">
  <diagram id="C5RBs43oDa-KdzZeNtuy" name="Page-1">
    <mxGraphModel dx="1093" dy="576" grid="1" gridSize="10" guides="1" tooltips="1" connect="1" arrows="1" fold="1" page="1" pageScale="1" pageWidth="1600" pageHeight="900" math="0" shadow="0">
      <root>
        <mxCell id="WIyWlLk6GJQsqaUBKTNV-0" />
        <mxCell id="WIyWlLk6GJQsqaUBKTNV-1" parent="WIyWlLk6GJQsqaUBKTNV-0" />
        <mxCell id="p2C2GwdgbSSy2Q40H9OF-0" value="Menu" style="swimlane;fontStyle=1;align=center;verticalAlign=top;childLayout=stackLayout;horizontal=1;startSize=26;horizontalStack=0;resizeParent=1;resizeParentMax=0;resizeLast=0;collapsible=1;marginBottom=0;" vertex="1" parent="WIyWlLk6GJQsqaUBKTNV-1">
          <mxGeometry x="870" y="670" width="160" height="114" as="geometry" />
        </mxCell>
        <mxCell id="p2C2GwdgbSSy2Q40H9OF-1" value="# id: int&#xa;+ DishCathegory: str&#xa;+ DishDescr: str" style="text;strokeColor=none;fillColor=none;align=left;verticalAlign=top;spacingLeft=4;spacingRight=4;overflow=hidden;rotatable=0;points=[[0,0.5],[1,0.5]];portConstraint=eastwest;" vertex="1" parent="p2C2GwdgbSSy2Q40H9OF-0">
          <mxGeometry y="26" width="160" height="54" as="geometry" />
        </mxCell>
        <mxCell id="p2C2GwdgbSSy2Q40H9OF-2" value="" style="line;strokeWidth=1;fillColor=none;align=left;verticalAlign=middle;spacingTop=-1;spacingLeft=3;spacingRight=3;rotatable=0;labelPosition=right;points=[];portConstraint=eastwest;" vertex="1" parent="p2C2GwdgbSSy2Q40H9OF-0">
          <mxGeometry y="80" width="160" height="8" as="geometry" />
        </mxCell>
        <mxCell id="p2C2GwdgbSSy2Q40H9OF-3" value="+ method(type): type" style="text;strokeColor=none;fillColor=none;align=left;verticalAlign=top;spacingLeft=4;spacingRight=4;overflow=hidden;rotatable=0;points=[[0,0.5],[1,0.5]];portConstraint=eastwest;" vertex="1" parent="p2C2GwdgbSSy2Q40H9OF-0">
          <mxGeometry y="88" width="160" height="26" as="geometry" />
        </mxCell>
        <mxCell id="p2C2GwdgbSSy2Q40H9OF-4" value="Dish" style="swimlane;fontStyle=1;align=center;verticalAlign=top;childLayout=stackLayout;horizontal=1;startSize=26;horizontalStack=0;resizeParent=1;resizeParentMax=0;resizeLast=0;collapsible=1;marginBottom=0;" vertex="1" parent="WIyWlLk6GJQsqaUBKTNV-1">
          <mxGeometry x="620" y="670" width="160" height="124" as="geometry" />
        </mxCell>
        <mxCell id="p2C2GwdgbSSy2Q40H9OF-5" value="# id: int&#xa;+ DishName: str&#xa;+ DishType: str&#xa;+ dishPrice: str" style="text;strokeColor=none;fillColor=none;align=left;verticalAlign=top;spacingLeft=4;spacingRight=4;overflow=hidden;rotatable=0;points=[[0,0.5],[1,0.5]];portConstraint=eastwest;" vertex="1" parent="p2C2GwdgbSSy2Q40H9OF-4">
          <mxGeometry y="26" width="160" height="64" as="geometry" />
        </mxCell>
        <mxCell id="p2C2GwdgbSSy2Q40H9OF-6" value="" style="line;strokeWidth=1;fillColor=none;align=left;verticalAlign=middle;spacingTop=-1;spacingLeft=3;spacingRight=3;rotatable=0;labelPosition=right;points=[];portConstraint=eastwest;" vertex="1" parent="p2C2GwdgbSSy2Q40H9OF-4">
          <mxGeometry y="90" width="160" height="8" as="geometry" />
        </mxCell>
        <mxCell id="p2C2GwdgbSSy2Q40H9OF-7" value="+ method(type): type" style="text;strokeColor=none;fillColor=none;align=left;verticalAlign=top;spacingLeft=4;spacingRight=4;overflow=hidden;rotatable=0;points=[[0,0.5],[1,0.5]];portConstraint=eastwest;" vertex="1" parent="p2C2GwdgbSSy2Q40H9OF-4">
          <mxGeometry y="98" width="160" height="26" as="geometry" />
        </mxCell>
        <mxCell id="p2C2GwdgbSSy2Q40H9OF-9" value="" style="endArrow=diamondThin;endFill=1;endSize=24;html=1;rounded=0;exitX=1;exitY=0.5;exitDx=0;exitDy=0;entryX=0;entryY=0.5;entryDx=0;entryDy=0;" edge="1" parent="WIyWlLk6GJQsqaUBKTNV-1" source="p2C2GwdgbSSy2Q40H9OF-5" target="p2C2GwdgbSSy2Q40H9OF-1">
          <mxGeometry width="160" relative="1" as="geometry">
            <mxPoint x="440" y="330" as="sourcePoint" />
            <mxPoint x="1040" y="579" as="targetPoint" />
          </mxGeometry>
        </mxCell>
        <mxCell id="p2C2GwdgbSSy2Q40H9OF-10" value="Payment" style="swimlane;fontStyle=1;align=center;verticalAlign=top;childLayout=stackLayout;horizontal=1;startSize=26;horizontalStack=0;resizeParent=1;resizeParentMax=0;resizeLast=0;collapsible=1;marginBottom=0;" vertex="1" parent="WIyWlLk6GJQsqaUBKTNV-1">
          <mxGeometry x="350" y="30" width="160" height="124" as="geometry" />
        </mxCell>
        <mxCell id="p2C2GwdgbSSy2Q40H9OF-11" value="+ id: int&#xa;+ CashOrCard: str&#xa;+ TotalToPay: str&#xa;+ Change: int" style="text;strokeColor=none;fillColor=none;align=left;verticalAlign=top;spacingLeft=4;spacingRight=4;overflow=hidden;rotatable=0;points=[[0,0.5],[1,0.5]];portConstraint=eastwest;" vertex="1" parent="p2C2GwdgbSSy2Q40H9OF-10">
          <mxGeometry y="26" width="160" height="64" as="geometry" />
        </mxCell>
        <mxCell id="p2C2GwdgbSSy2Q40H9OF-12" value="" style="line;strokeWidth=1;fillColor=none;align=left;verticalAlign=middle;spacingTop=-1;spacingLeft=3;spacingRight=3;rotatable=0;labelPosition=right;points=[];portConstraint=eastwest;" vertex="1" parent="p2C2GwdgbSSy2Q40H9OF-10">
          <mxGeometry y="90" width="160" height="8" as="geometry" />
        </mxCell>
        <mxCell id="p2C2GwdgbSSy2Q40H9OF-13" value="+ cash_or_card()" style="text;strokeColor=none;fillColor=none;align=left;verticalAlign=top;spacingLeft=4;spacingRight=4;overflow=hidden;rotatable=0;points=[[0,0.5],[1,0.5]];portConstraint=eastwest;" vertex="1" parent="p2C2GwdgbSSy2Q40H9OF-10">
          <mxGeometry y="98" width="160" height="26" as="geometry" />
        </mxCell>
        <mxCell id="p2C2GwdgbSSy2Q40H9OF-26" value="Card" style="swimlane;fontStyle=1;align=center;verticalAlign=top;childLayout=stackLayout;horizontal=1;startSize=26;horizontalStack=0;resizeParent=1;resizeParentMax=0;resizeLast=0;collapsible=1;marginBottom=0;" vertex="1" parent="WIyWlLk6GJQsqaUBKTNV-1">
          <mxGeometry x="440" y="210" width="160" height="94" as="geometry" />
        </mxCell>
        <mxCell id="p2C2GwdgbSSy2Q40H9OF-27" value="# id: int&#xa;+ CardNumber: int" style="text;strokeColor=none;fillColor=none;align=left;verticalAlign=top;spacingLeft=4;spacingRight=4;overflow=hidden;rotatable=0;points=[[0,0.5],[1,0.5]];portConstraint=eastwest;" vertex="1" parent="p2C2GwdgbSSy2Q40H9OF-26">
          <mxGeometry y="26" width="160" height="34" as="geometry" />
        </mxCell>
        <mxCell id="p2C2GwdgbSSy2Q40H9OF-28" value="" style="line;strokeWidth=1;fillColor=none;align=left;verticalAlign=middle;spacingTop=-1;spacingLeft=3;spacingRight=3;rotatable=0;labelPosition=right;points=[];portConstraint=eastwest;" vertex="1" parent="p2C2GwdgbSSy2Q40H9OF-26">
          <mxGeometry y="60" width="160" height="8" as="geometry" />
        </mxCell>
        <mxCell id="p2C2GwdgbSSy2Q40H9OF-29" value="+ proceed_with_card()" style="text;strokeColor=none;fillColor=none;align=left;verticalAlign=top;spacingLeft=4;spacingRight=4;overflow=hidden;rotatable=0;points=[[0,0.5],[1,0.5]];portConstraint=eastwest;" vertex="1" parent="p2C2GwdgbSSy2Q40H9OF-26">
          <mxGeometry y="68" width="160" height="26" as="geometry" />
        </mxCell>
        <mxCell id="p2C2GwdgbSSy2Q40H9OF-30" value="Cash" style="swimlane;fontStyle=1;align=center;verticalAlign=top;childLayout=stackLayout;horizontal=1;startSize=26;horizontalStack=0;resizeParent=1;resizeParentMax=0;resizeLast=0;collapsible=1;marginBottom=0;" vertex="1" parent="WIyWlLk6GJQsqaUBKTNV-1">
          <mxGeometry x="270" y="210" width="160" height="94" as="geometry" />
        </mxCell>
        <mxCell id="p2C2GwdgbSSy2Q40H9OF-31" value="# id: int&#xa;+ Change: bool" style="text;strokeColor=none;fillColor=none;align=left;verticalAlign=top;spacingLeft=4;spacingRight=4;overflow=hidden;rotatable=0;points=[[0,0.5],[1,0.5]];portConstraint=eastwest;" vertex="1" parent="p2C2GwdgbSSy2Q40H9OF-30">
          <mxGeometry y="26" width="160" height="34" as="geometry" />
        </mxCell>
        <mxCell id="p2C2GwdgbSSy2Q40H9OF-32" value="" style="line;strokeWidth=1;fillColor=none;align=left;verticalAlign=middle;spacingTop=-1;spacingLeft=3;spacingRight=3;rotatable=0;labelPosition=right;points=[];portConstraint=eastwest;" vertex="1" parent="p2C2GwdgbSSy2Q40H9OF-30">
          <mxGeometry y="60" width="160" height="8" as="geometry" />
        </mxCell>
        <mxCell id="p2C2GwdgbSSy2Q40H9OF-33" value="+ proceed_in_cash()" style="text;strokeColor=none;fillColor=none;align=left;verticalAlign=top;spacingLeft=4;spacingRight=4;overflow=hidden;rotatable=0;points=[[0,0.5],[1,0.5]];portConstraint=eastwest;" vertex="1" parent="p2C2GwdgbSSy2Q40H9OF-30">
          <mxGeometry y="68" width="160" height="26" as="geometry" />
        </mxCell>
        <mxCell id="p2C2GwdgbSSy2Q40H9OF-34" value="" style="endArrow=open;startArrow=circlePlus;endFill=0;startFill=0;endSize=8;html=1;rounded=0;entryX=0.774;entryY=1.005;entryDx=0;entryDy=0;entryPerimeter=0;exitX=0.5;exitY=0;exitDx=0;exitDy=0;" edge="1" parent="WIyWlLk6GJQsqaUBKTNV-1" source="p2C2GwdgbSSy2Q40H9OF-26" target="p2C2GwdgbSSy2Q40H9OF-13">
          <mxGeometry width="160" relative="1" as="geometry">
            <mxPoint x="840" y="480" as="sourcePoint" />
            <mxPoint x="1000" y="480" as="targetPoint" />
          </mxGeometry>
        </mxCell>
        <mxCell id="p2C2GwdgbSSy2Q40H9OF-35" value="" style="endArrow=open;startArrow=circlePlus;endFill=0;startFill=0;endSize=8;html=1;rounded=0;entryX=0.321;entryY=1.026;entryDx=0;entryDy=0;entryPerimeter=0;exitX=0.5;exitY=0;exitDx=0;exitDy=0;" edge="1" parent="WIyWlLk6GJQsqaUBKTNV-1" source="p2C2GwdgbSSy2Q40H9OF-30" target="p2C2GwdgbSSy2Q40H9OF-13">
          <mxGeometry width="160" relative="1" as="geometry">
            <mxPoint x="390" y="280" as="sourcePoint" />
            <mxPoint x="550" y="280" as="targetPoint" />
          </mxGeometry>
        </mxCell>
        <mxCell id="p2C2GwdgbSSy2Q40H9OF-36" value="Manager" style="swimlane;fontStyle=1;align=center;verticalAlign=top;childLayout=stackLayout;horizontal=1;startSize=26;horizontalStack=0;resizeParent=1;resizeParentMax=0;resizeLast=0;collapsible=1;marginBottom=0;" vertex="1" parent="WIyWlLk6GJQsqaUBKTNV-1">
          <mxGeometry x="1180" y="534" width="160" height="178" as="geometry" />
        </mxCell>
        <mxCell id="p2C2GwdgbSSy2Q40H9OF-37" value="# id: int&#xa;+ Name: str&#xa;+ Age: str&#xa;+ Contact: str&#xa;- Username: str&#xa;- Password: str" style="text;strokeColor=none;fillColor=none;align=left;verticalAlign=top;spacingLeft=4;spacingRight=4;overflow=hidden;rotatable=0;points=[[0,0.5],[1,0.5]];portConstraint=eastwest;" vertex="1" parent="p2C2GwdgbSSy2Q40H9OF-36">
          <mxGeometry y="26" width="160" height="94" as="geometry" />
        </mxCell>
        <mxCell id="p2C2GwdgbSSy2Q40H9OF-38" value="" style="line;strokeWidth=1;fillColor=none;align=left;verticalAlign=middle;spacingTop=-1;spacingLeft=3;spacingRight=3;rotatable=0;labelPosition=right;points=[];portConstraint=eastwest;" vertex="1" parent="p2C2GwdgbSSy2Q40H9OF-36">
          <mxGeometry y="120" width="160" height="8" as="geometry" />
        </mxCell>
        <mxCell id="p2C2GwdgbSSy2Q40H9OF-39" value="+ create_menu()&#xa;+ update()&#xa;+ commit_order()" style="text;strokeColor=none;fillColor=none;align=left;verticalAlign=top;spacingLeft=4;spacingRight=4;overflow=hidden;rotatable=0;points=[[0,0.5],[1,0.5]];portConstraint=eastwest;" vertex="1" parent="p2C2GwdgbSSy2Q40H9OF-36">
          <mxGeometry y="128" width="160" height="50" as="geometry" />
        </mxCell>
        <mxCell id="p2C2GwdgbSSy2Q40H9OF-40" value="" style="endArrow=none;html=1;edgeStyle=orthogonalEdgeStyle;rounded=0;exitX=1;exitY=0.5;exitDx=0;exitDy=0;entryX=0.5;entryY=0;entryDx=0;entryDy=0;" edge="1" parent="WIyWlLk6GJQsqaUBKTNV-1" source="p2C2GwdgbSSy2Q40H9OF-11" target="p2C2GwdgbSSy2Q40H9OF-36">
          <mxGeometry relative="1" as="geometry">
            <mxPoint x="740" y="140" as="sourcePoint" />
            <mxPoint x="1090" y="150" as="targetPoint" />
          </mxGeometry>
        </mxCell>
        <mxCell id="p2C2GwdgbSSy2Q40H9OF-41" value="1..*" style="edgeLabel;resizable=0;html=1;align=left;verticalAlign=bottom;" connectable="0" vertex="1" parent="p2C2GwdgbSSy2Q40H9OF-40">
          <mxGeometry x="-1" relative="1" as="geometry" />
        </mxCell>
        <mxCell id="p2C2GwdgbSSy2Q40H9OF-42" value="1" style="edgeLabel;resizable=0;html=1;align=right;verticalAlign=bottom;" connectable="0" vertex="1" parent="p2C2GwdgbSSy2Q40H9OF-40">
          <mxGeometry x="1" relative="1" as="geometry" />
        </mxCell>
        <mxCell id="p2C2GwdgbSSy2Q40H9OF-43" value="" style="endArrow=diamondThin;endFill=1;endSize=24;html=1;rounded=0;exitX=1;exitY=0.5;exitDx=0;exitDy=0;entryX=0.493;entryY=1.044;entryDx=0;entryDy=0;entryPerimeter=0;" edge="1" parent="WIyWlLk6GJQsqaUBKTNV-1" source="p2C2GwdgbSSy2Q40H9OF-1" target="p2C2GwdgbSSy2Q40H9OF-39">
          <mxGeometry width="160" relative="1" as="geometry">
            <mxPoint x="1100" y="582.41" as="sourcePoint" />
            <mxPoint x="1120" y="290" as="targetPoint" />
          </mxGeometry>
        </mxCell>
        <mxCell id="p2C2GwdgbSSy2Q40H9OF-44" value="Cook" style="swimlane;fontStyle=1;align=center;verticalAlign=top;childLayout=stackLayout;horizontal=1;startSize=26;horizontalStack=0;resizeParent=1;resizeParentMax=0;resizeLast=0;collapsible=1;marginBottom=0;" vertex="1" parent="WIyWlLk6GJQsqaUBKTNV-1">
          <mxGeometry x="310" y="670" width="160" height="94" as="geometry" />
        </mxCell>
        <mxCell id="p2C2GwdgbSSy2Q40H9OF-45" value="# id: int&#xa;+ TimeToMake: int" style="text;strokeColor=none;fillColor=none;align=left;verticalAlign=top;spacingLeft=4;spacingRight=4;overflow=hidden;rotatable=0;points=[[0,0.5],[1,0.5]];portConstraint=eastwest;" vertex="1" parent="p2C2GwdgbSSy2Q40H9OF-44">
          <mxGeometry y="26" width="160" height="34" as="geometry" />
        </mxCell>
        <mxCell id="p2C2GwdgbSSy2Q40H9OF-46" value="" style="line;strokeWidth=1;fillColor=none;align=left;verticalAlign=middle;spacingTop=-1;spacingLeft=3;spacingRight=3;rotatable=0;labelPosition=right;points=[];portConstraint=eastwest;" vertex="1" parent="p2C2GwdgbSSy2Q40H9OF-44">
          <mxGeometry y="60" width="160" height="8" as="geometry" />
        </mxCell>
        <mxCell id="p2C2GwdgbSSy2Q40H9OF-47" value="+ create_dish()" style="text;strokeColor=none;fillColor=none;align=left;verticalAlign=top;spacingLeft=4;spacingRight=4;overflow=hidden;rotatable=0;points=[[0,0.5],[1,0.5]];portConstraint=eastwest;" vertex="1" parent="p2C2GwdgbSSy2Q40H9OF-44">
          <mxGeometry y="68" width="160" height="26" as="geometry" />
        </mxCell>
        <mxCell id="p2C2GwdgbSSy2Q40H9OF-48" value="" style="endArrow=none;html=1;edgeStyle=orthogonalEdgeStyle;rounded=0;exitX=1;exitY=0.5;exitDx=0;exitDy=0;entryX=0;entryY=0.5;entryDx=0;entryDy=0;" edge="1" parent="WIyWlLk6GJQsqaUBKTNV-1" source="p2C2GwdgbSSy2Q40H9OF-47" target="p2C2GwdgbSSy2Q40H9OF-5">
          <mxGeometry relative="1" as="geometry">
            <mxPoint x="650" y="486" as="sourcePoint" />
            <mxPoint x="690" y="339" as="targetPoint" />
            <Array as="points">
              <mxPoint x="590" y="743" />
              <mxPoint x="590" y="709" />
            </Array>
          </mxGeometry>
        </mxCell>
        <mxCell id="p2C2GwdgbSSy2Q40H9OF-49" value="1" style="edgeLabel;resizable=0;html=1;align=left;verticalAlign=bottom;" connectable="0" vertex="1" parent="p2C2GwdgbSSy2Q40H9OF-48">
          <mxGeometry x="-1" relative="1" as="geometry" />
        </mxCell>
        <mxCell id="p2C2GwdgbSSy2Q40H9OF-50" value="1..*" style="edgeLabel;resizable=0;html=1;align=right;verticalAlign=bottom;" connectable="0" vertex="1" parent="p2C2GwdgbSSy2Q40H9OF-48">
          <mxGeometry x="1" relative="1" as="geometry" />
        </mxCell>
        <mxCell id="p2C2GwdgbSSy2Q40H9OF-51" value="Client" style="swimlane;fontStyle=1;align=center;verticalAlign=top;childLayout=stackLayout;horizontal=1;startSize=26;horizontalStack=0;resizeParent=1;resizeParentMax=0;resizeLast=0;collapsible=1;marginBottom=0;" vertex="1" parent="WIyWlLk6GJQsqaUBKTNV-1">
          <mxGeometry x="350" y="340" width="160" height="98" as="geometry" />
        </mxCell>
        <mxCell id="p2C2GwdgbSSy2Q40H9OF-52" value="+ WayToPay: str" style="text;strokeColor=none;fillColor=none;align=left;verticalAlign=top;spacingLeft=4;spacingRight=4;overflow=hidden;rotatable=0;points=[[0,0.5],[1,0.5]];portConstraint=eastwest;" vertex="1" parent="p2C2GwdgbSSy2Q40H9OF-51">
          <mxGeometry y="26" width="160" height="24" as="geometry" />
        </mxCell>
        <mxCell id="p2C2GwdgbSSy2Q40H9OF-53" value="" style="line;strokeWidth=1;fillColor=none;align=left;verticalAlign=middle;spacingTop=-1;spacingLeft=3;spacingRight=3;rotatable=0;labelPosition=right;points=[];portConstraint=eastwest;" vertex="1" parent="p2C2GwdgbSSy2Q40H9OF-51">
          <mxGeometry y="50" width="160" height="8" as="geometry" />
        </mxCell>
        <mxCell id="p2C2GwdgbSSy2Q40H9OF-54" value="+ make_order()&#xa;+ proceed_payment()" style="text;strokeColor=none;fillColor=none;align=left;verticalAlign=top;spacingLeft=4;spacingRight=4;overflow=hidden;rotatable=0;points=[[0,0.5],[1,0.5]];portConstraint=eastwest;" vertex="1" parent="p2C2GwdgbSSy2Q40H9OF-51">
          <mxGeometry y="58" width="160" height="40" as="geometry" />
        </mxCell>
        <mxCell id="p2C2GwdgbSSy2Q40H9OF-55" value="" style="endArrow=diamondThin;endFill=1;endSize=24;html=1;rounded=0;entryX=0.48;entryY=1.064;entryDx=0;entryDy=0;entryPerimeter=0;exitX=0.75;exitY=0;exitDx=0;exitDy=0;" edge="1" parent="WIyWlLk6GJQsqaUBKTNV-1" source="p2C2GwdgbSSy2Q40H9OF-51" target="p2C2GwdgbSSy2Q40H9OF-29">
          <mxGeometry width="160" relative="1" as="geometry">
            <mxPoint x="630" y="440" as="sourcePoint" />
            <mxPoint x="790" y="440" as="targetPoint" />
          </mxGeometry>
        </mxCell>
        <mxCell id="p2C2GwdgbSSy2Q40H9OF-56" value="" style="endArrow=diamondThin;endFill=1;endSize=24;html=1;rounded=0;exitX=0.25;exitY=0;exitDx=0;exitDy=0;entryX=0.496;entryY=1.023;entryDx=0;entryDy=0;entryPerimeter=0;" edge="1" parent="WIyWlLk6GJQsqaUBKTNV-1" source="p2C2GwdgbSSy2Q40H9OF-51" target="p2C2GwdgbSSy2Q40H9OF-33">
          <mxGeometry width="160" relative="1" as="geometry">
            <mxPoint x="630" y="440" as="sourcePoint" />
            <mxPoint x="350" y="290" as="targetPoint" />
          </mxGeometry>
        </mxCell>
        <mxCell id="p2C2GwdgbSSy2Q40H9OF-57" value="" style="endArrow=none;html=1;edgeStyle=orthogonalEdgeStyle;rounded=0;exitX=1;exitY=0.5;exitDx=0;exitDy=0;entryX=0.5;entryY=0;entryDx=0;entryDy=0;" edge="1" parent="WIyWlLk6GJQsqaUBKTNV-1" source="p2C2GwdgbSSy2Q40H9OF-54" target="p2C2GwdgbSSy2Q40H9OF-0">
          <mxGeometry relative="1" as="geometry">
            <mxPoint x="630" y="440" as="sourcePoint" />
            <mxPoint x="790" y="440" as="targetPoint" />
          </mxGeometry>
        </mxCell>
        <mxCell id="p2C2GwdgbSSy2Q40H9OF-58" value="1" style="edgeLabel;resizable=0;html=1;align=left;verticalAlign=bottom;" connectable="0" vertex="1" parent="p2C2GwdgbSSy2Q40H9OF-57">
          <mxGeometry x="-1" relative="1" as="geometry" />
        </mxCell>
        <mxCell id="p2C2GwdgbSSy2Q40H9OF-59" value="0..*" style="edgeLabel;resizable=0;html=1;align=right;verticalAlign=bottom;" connectable="0" vertex="1" parent="p2C2GwdgbSSy2Q40H9OF-57">
          <mxGeometry x="1" relative="1" as="geometry" />
        </mxCell>
        <mxCell id="p2C2GwdgbSSy2Q40H9OF-60" value="Order" style="swimlane;fontStyle=1;align=center;verticalAlign=top;childLayout=stackLayout;horizontal=1;startSize=26;horizontalStack=0;resizeParent=1;resizeParentMax=0;resizeLast=0;collapsible=1;marginBottom=0;" vertex="1" parent="WIyWlLk6GJQsqaUBKTNV-1">
          <mxGeometry x="450" y="520" width="160" height="104" as="geometry" />
        </mxCell>
        <mxCell id="p2C2GwdgbSSy2Q40H9OF-61" value="# id: int&#xa;+ OrderedMeals: str&#xa;+ Details: str" style="text;strokeColor=none;fillColor=none;align=left;verticalAlign=top;spacingLeft=4;spacingRight=4;overflow=hidden;rotatable=0;points=[[0,0.5],[1,0.5]];portConstraint=eastwest;" vertex="1" parent="p2C2GwdgbSSy2Q40H9OF-60">
          <mxGeometry y="26" width="160" height="44" as="geometry" />
        </mxCell>
        <mxCell id="p2C2GwdgbSSy2Q40H9OF-62" value="" style="line;strokeWidth=1;fillColor=none;align=left;verticalAlign=middle;spacingTop=-1;spacingLeft=3;spacingRight=3;rotatable=0;labelPosition=right;points=[];portConstraint=eastwest;" vertex="1" parent="p2C2GwdgbSSy2Q40H9OF-60">
          <mxGeometry y="70" width="160" height="8" as="geometry" />
        </mxCell>
        <mxCell id="p2C2GwdgbSSy2Q40H9OF-63" value="+ process()" style="text;strokeColor=none;fillColor=none;align=left;verticalAlign=top;spacingLeft=4;spacingRight=4;overflow=hidden;rotatable=0;points=[[0,0.5],[1,0.5]];portConstraint=eastwest;" vertex="1" parent="p2C2GwdgbSSy2Q40H9OF-60">
          <mxGeometry y="78" width="160" height="26" as="geometry" />
        </mxCell>
        <mxCell id="p2C2GwdgbSSy2Q40H9OF-64" value="" style="endArrow=diamondThin;endFill=0;endSize=24;html=1;rounded=0;exitX=0.5;exitY=0;exitDx=0;exitDy=0;entryX=1;entryY=0.5;entryDx=0;entryDy=0;" edge="1" parent="WIyWlLk6GJQsqaUBKTNV-1" source="p2C2GwdgbSSy2Q40H9OF-4" target="p2C2GwdgbSSy2Q40H9OF-63">
          <mxGeometry width="160" relative="1" as="geometry">
            <mxPoint x="390" y="550" as="sourcePoint" />
            <mxPoint x="550" y="550" as="targetPoint" />
          </mxGeometry>
        </mxCell>
        <mxCell id="p2C2GwdgbSSy2Q40H9OF-65" value="Waiter" style="swimlane;fontStyle=1;align=center;verticalAlign=top;childLayout=stackLayout;horizontal=1;startSize=26;horizontalStack=0;resizeParent=1;resizeParentMax=0;resizeLast=0;collapsible=1;marginBottom=0;" vertex="1" parent="WIyWlLk6GJQsqaUBKTNV-1">
          <mxGeometry x="70" y="430" width="160" height="124" as="geometry" />
        </mxCell>
        <mxCell id="p2C2GwdgbSSy2Q40H9OF-66" value="# id: int&#xa;+ TimeToTakeOrder: int&#xa;+ Name: str&#xa;+ Goodwill: bool" style="text;strokeColor=none;fillColor=none;align=left;verticalAlign=top;spacingLeft=4;spacingRight=4;overflow=hidden;rotatable=0;points=[[0,0.5],[1,0.5]];portConstraint=eastwest;" vertex="1" parent="p2C2GwdgbSSy2Q40H9OF-65">
          <mxGeometry y="26" width="160" height="64" as="geometry" />
        </mxCell>
        <mxCell id="p2C2GwdgbSSy2Q40H9OF-67" value="" style="line;strokeWidth=1;fillColor=none;align=left;verticalAlign=middle;spacingTop=-1;spacingLeft=3;spacingRight=3;rotatable=0;labelPosition=right;points=[];portConstraint=eastwest;" vertex="1" parent="p2C2GwdgbSSy2Q40H9OF-65">
          <mxGeometry y="90" width="160" height="8" as="geometry" />
        </mxCell>
        <mxCell id="p2C2GwdgbSSy2Q40H9OF-68" value="+ take_order()" style="text;strokeColor=none;fillColor=none;align=left;verticalAlign=top;spacingLeft=4;spacingRight=4;overflow=hidden;rotatable=0;points=[[0,0.5],[1,0.5]];portConstraint=eastwest;" vertex="1" parent="p2C2GwdgbSSy2Q40H9OF-65">
          <mxGeometry y="98" width="160" height="26" as="geometry" />
        </mxCell>
        <mxCell id="p2C2GwdgbSSy2Q40H9OF-69" value="" style="endArrow=diamondThin;endFill=1;endSize=24;html=1;rounded=0;exitX=0.5;exitY=0;exitDx=0;exitDy=0;entryX=0.792;entryY=0.979;entryDx=0;entryDy=0;entryPerimeter=0;" edge="1" parent="WIyWlLk6GJQsqaUBKTNV-1" source="p2C2GwdgbSSy2Q40H9OF-60" target="p2C2GwdgbSSy2Q40H9OF-54">
          <mxGeometry width="160" relative="1" as="geometry">
            <mxPoint x="360" y="410" as="sourcePoint" />
            <mxPoint x="520" y="410" as="targetPoint" />
          </mxGeometry>
        </mxCell>
        <mxCell id="p2C2GwdgbSSy2Q40H9OF-70" value="" style="endArrow=none;html=1;edgeStyle=orthogonalEdgeStyle;rounded=0;entryX=0;entryY=0.25;entryDx=0;entryDy=0;exitX=1;exitY=0.5;exitDx=0;exitDy=0;" edge="1" parent="WIyWlLk6GJQsqaUBKTNV-1" source="p2C2GwdgbSSy2Q40H9OF-68" target="p2C2GwdgbSSy2Q40H9OF-60">
          <mxGeometry relative="1" as="geometry">
            <mxPoint x="250" y="500" as="sourcePoint" />
            <mxPoint x="430" y="560" as="targetPoint" />
            <Array as="points">
              <mxPoint x="330" y="503" />
              <mxPoint x="330" y="541" />
            </Array>
          </mxGeometry>
        </mxCell>
        <mxCell id="p2C2GwdgbSSy2Q40H9OF-71" value="1" style="edgeLabel;resizable=0;html=1;align=left;verticalAlign=bottom;" connectable="0" vertex="1" parent="p2C2GwdgbSSy2Q40H9OF-70">
          <mxGeometry x="-1" relative="1" as="geometry" />
        </mxCell>
        <mxCell id="p2C2GwdgbSSy2Q40H9OF-72" value="1..*" style="edgeLabel;resizable=0;html=1;align=right;verticalAlign=bottom;" connectable="0" vertex="1" parent="p2C2GwdgbSSy2Q40H9OF-70">
          <mxGeometry x="1" relative="1" as="geometry" />
        </mxCell>
        <mxCell id="p2C2GwdgbSSy2Q40H9OF-73" value="" style="endArrow=none;html=1;edgeStyle=orthogonalEdgeStyle;rounded=0;exitX=0.494;exitY=1.008;exitDx=0;exitDy=0;exitPerimeter=0;entryX=0;entryY=0.5;entryDx=0;entryDy=0;" edge="1" parent="WIyWlLk6GJQsqaUBKTNV-1" source="p2C2GwdgbSSy2Q40H9OF-68" target="p2C2GwdgbSSy2Q40H9OF-39">
          <mxGeometry relative="1" as="geometry">
            <mxPoint x="150" y="590" as="sourcePoint" />
            <mxPoint x="600" y="640" as="targetPoint" />
            <Array as="points">
              <mxPoint x="149" y="617" />
              <mxPoint x="310" y="617" />
              <mxPoint x="310" y="640" />
              <mxPoint x="1144" y="640" />
              <mxPoint x="1144" y="687" />
            </Array>
          </mxGeometry>
        </mxCell>
        <mxCell id="p2C2GwdgbSSy2Q40H9OF-74" value="1..*" style="edgeLabel;resizable=0;html=1;align=left;verticalAlign=bottom;" connectable="0" vertex="1" parent="p2C2GwdgbSSy2Q40H9OF-73">
          <mxGeometry x="-1" relative="1" as="geometry" />
        </mxCell>
        <mxCell id="p2C2GwdgbSSy2Q40H9OF-75" value="1..*" style="edgeLabel;resizable=0;html=1;align=right;verticalAlign=bottom;" connectable="0" vertex="1" parent="p2C2GwdgbSSy2Q40H9OF-73">
          <mxGeometry x="1" relative="1" as="geometry" />
        </mxCell>
      </root>
    </mxGraphModel>
  </diagram>
</mxfile>
